sfk_cyclingleg_states
version=1
nRows=6
nColumns=53
inDegrees=yes

# SIMM Motion File Header:
name sfk_cyclingleg_states
datacolumns 53
datarows 6
otherdata 1
range 0.00000000 0.01696158
endheader
time	/jointset/bb/crank_angle/value	/jointset/bb/crank_angle/speed	/jointset/spindle/pedal_angle_r/value	/jointset/spindle/pedal_angle_r/speed	/jointset/ground_pelvis/pelvis_tilt/value	/jointset/ground_pelvis/pelvis_tilt/speed	/jointset/ground_pelvis/pelvis_list/value	/jointset/ground_pelvis/pelvis_list/speed	/jointset/ground_pelvis/pelvis_rotation/value	/jointset/ground_pelvis/pelvis_rotation/speed	/jointset/ground_pelvis/pelvis_tx/value	/jointset/ground_pelvis/pelvis_tx/speed	/jointset/ground_pelvis/pelvis_ty/value	/jointset/ground_pelvis/pelvis_ty/speed	/jointset/ground_pelvis/pelvis_tz/value	/jointset/ground_pelvis/pelvis_tz/speed	/jointset/hip_r/hip_angle_r/value	/jointset/hip_r/hip_angle_r/speed	/jointset/hip_r/hip_adduction_r/value	/jointset/hip_r/hip_adduction_r/speed	/jointset/hip_r/hip_rotation_r/value	/jointset/hip_r/hip_rotation_r/speed	/jointset/knee_r/knee_angle_r/value	/jointset/knee_r/knee_angle_r/speed	/jointset/knee_r/tib_tx_r/value	/jointset/knee_r/tib_tx_r/speed	/jointset/knee_r/tib_ty_r/value	/jointset/knee_r/tib_ty_r/speed	/jointset/tib_pat_r/pat_angle_r/value	/jointset/tib_pat_r/pat_angle_r/speed	/jointset/tib_pat_r/pat_tx_r/value	/jointset/tib_pat_r/pat_tx_r/speed	/jointset/tib_pat_r/pat_ty_r/value	/jointset/tib_pat_r/pat_ty_r/speed	/jointset/ankle_r/ankle_angle_r/value	/jointset/ankle_r/ankle_angle_r/speed	/jointset/subtalar_r/subtalar_angle_r/value	/jointset/subtalar_r/subtalar_angle_r/speed	/jointset/mtp_r/mtp_angle_r/value	/jointset/mtp_r/mtp_angle_r/speed	/forceset/bifemlh_r/activation	/forceset/bifemlh_r/fiber_length	/forceset/bifemsh_r/activation	/forceset/bifemsh_r/fiber_length	/forceset/glut_max2_r/activation	/forceset/glut_max2_r/fiber_length	/forceset/vas_int_r/activation	/forceset/vas_int_r/fiber_length	/forceset/med_gas_r/activation	/forceset/med_gas_r/fiber_length	/forceset/tib_ant_r/activation	/forceset/tib_ant_r/fiber_length
      0.00000000	    -10.13487855	   -480.13863232	      7.81981920	    607.38333639	     -0.00000000	     -0.00000000	      0.00000000	     -0.00000000	     -0.00000000	      0.00000000	     -0.00000000	      0.00000000	     -0.00000000	     -0.00000000	      0.00000000	     -0.00000000	     86.32931611	     21.93289715	      4.07550622	      1.53754667	     -3.84192465	     15.91686169	   -115.75559844	    153.42156058	     -0.00222969	      0.05232689	     -0.49468443	      0.04963396	     17.65087772	     -0.07885657	      0.02157084	      0.07540803	     -0.02426339	      0.01219225	     27.80654773	    -49.54325673	      0.00000000	      0.00000000	     -0.00000000	      0.00000000	      0.05000000	      0.14049887	      0.05000000	      0.14480596	      0.05000000	      0.15634451	      0.05000000	      0.16066642	      0.05000000	      0.13002473	      0.05000000	      0.11070928
      0.00102765	    -10.62829407	   -480.13863232	      8.44375586	    606.91160897	     -0.00000000	      0.00000000	     -0.00000000	     -0.00000000	      0.00000000	      0.00000000	      0.00000000	      0.00000000	     -0.00000000	     -0.00000000	     -0.00000000	     -0.00000000	     86.35082148	     19.92013272	      4.07709563	      1.55571127	     -3.82549323	     16.06129164	   -115.59700409	    155.22998397	     -0.00217571	      0.05273047	     -0.49463309	      0.05026694	     17.65079156	     -0.08890482	      0.02164873	      0.07617820	     -0.02425080	      0.01230993	     27.75549057	    -49.82119053	     -0.00000000	     -0.00000000	      0.00000000	      0.00000000	      0.04926750	      0.14049952	      0.04926750	      0.14480797	      0.04926750	      0.15634521	      0.04926750	      0.16065503	      0.04926750	      0.13002637	      0.04926750	      0.11071067
      0.00539142	    -12.72350637	   -480.13863232	     11.08776290	    604.88284854	      0.00000000	      0.00000000	     -0.00000000	     -0.00000000	     -0.00000000	     -0.00000000	      0.00000000	      0.00000000	     -0.00000000	     -0.00000000	     -0.00000000	     -0.00000000	     86.41906866	     11.35504113	      4.08404850	      1.63019280	     -3.75411224	     16.64648731	   -114.90309679	    162.76143350	     -0.00194207	      0.05431310	     -0.49440793	      0.05292179	     17.65030329	     -0.13612322	      0.02198811	      0.07933193	     -0.02419603	      0.01278553	     27.53573698	    -50.85773475	     -0.00000000	     -0.00000000	      0.00000000	      0.00000000	      0.04628889	      0.14051768	      0.04628889	      0.14485840	      0.04628889	      0.15636197	      0.04628889	      0.16045250	      0.04628889	      0.13007226	      0.04628889	      0.11076316
      0.00975518	    -14.81871866	   -480.13863232	     13.72284499	    602.82349788	      0.00000000	      0.00000000	     -0.00000000	     -0.00000000	     -0.00000000	     -0.00000000	      0.00000000	      0.00000000	     -0.00000000	     -0.00000000	     -0.00000000	     -0.00000000	     86.44990763	      2.77937341	      4.09131649	      1.70006956	     -3.68027551	     17.18699911	   -114.17685092	    170.05078233	     -0.00170200	      0.05568296	     -0.49417130	      0.05552096	     17.64959264	     -0.19050825	      0.02234083	      0.08229588	     -0.02413927	      0.01322100	     27.31195903	    -51.66685061	     -0.00000000	     -0.00000000	      0.00000000	      0.00000000	      0.04351084	      0.14056205	      0.04351084	      0.14495481	      0.04351084	      0.15639395	      0.04351084	      0.16009628	      0.04351084	      0.13016258	      0.04351084	      0.11093519
      0.01411895	    -16.91393096	   -480.13863232	     16.34889869	    600.74710068	      0.00000000	      0.00000000	     -0.00000000	     -0.00000000	     -0.00000000	     -0.00000000	      0.00000000	      0.00000000	     -0.00000000	     -0.00000000	     -0.00000000	     -0.00000000	     86.44334597	     -5.78243345	      4.09887865	      1.76495394	     -3.60417529	     17.68412972	   -113.41933012	    177.09492791	     -0.00145641	      0.05684028	     -0.49392345	      0.05806154	     17.64863538	     -0.24877555	      0.02270607	      0.08506965	     -0.02408070	      0.01361505	     27.08513228	    -52.25648856	     -0.00000000	     -0.00000000	      0.00000000	     -0.00000000	      0.04091748	      0.14063061	      0.04091748	      0.14507143	      0.04091748	      0.15643078	      0.04091748	      0.15983581	      0.04091748	      0.13027011	      0.04091748	      0.11118861
      0.01696158	    -18.27878768	   -480.13863232	     18.05467365	    599.39117793	      0.00000000	      0.00000000	     -0.00000000	     -0.00000000	     -0.00000000	     -0.00000000	      0.00000000	      0.00000000	     -0.00000000	     -0.00000000	     -0.00000000	     -0.00000000	     86.41900341	    -11.34120838	      4.10395233	      1.80437026	     -3.55347355	     17.98535568	   -112.90955674	    181.55066902	     -0.00129390	      0.05748045	     -0.49375609	      0.05968366	     17.64787219	     -0.28837800	      0.02295033	      0.08677446	     -0.02404166	      0.01384888	     26.93618134	    -52.52680756	     -0.00000000	      0.00000000	      0.00000000	     -0.00000000	      0.03932060	      0.14068499	      0.03932060	      0.14515430	      0.03932060	      0.15645353	      0.03932060	      0.15958460	      0.03932060	      0.13034344	      0.03932060	      0.11136227
